<svg id="Capa_1" enable-background="new 0 0 511.887 511.887" height="512" viewBox="0 0 511.887 511.887" width="512" xmlns="http://www.w3.org/2000/svg"><g><path d="m148.148 321.846h45v60h-45z" fill="#a4bde0" transform="matrix(.707 .707 -.707 .707 298.774 -17.613)"/><path d="m139.738 305.936h30v60h-30z" fill="#b0d0ff" transform="matrix(.707 .707 -.707 .707 282.865 -11.023)"/><path d="m88.21 486.739c.006.006 66.528-87.164 66.528-87.164l-21.213-42.426-112.901 134.114c17.574 17.574 46.066 17.574 63.64 0 1.436-1.436 2.744-2.953 3.946-4.524z" fill="#8d6ed1"/><path d="m63.05 470.05c1.437-1.437 2.744-2.953 3.946-4.524.006.006 66.528-87.164 66.528-87.164v-21.213h-21.213l-87.169 66.522c-1.565 1.208-3.081 2.515-4.518 3.952-17.574 17.574-17.574 46.066 0 63.64 5.858 5.858 24.853-3.639 42.426-21.213z" fill="#a381e6"/><circle cx="324.444" cy="187.444" fill="#a4bde0" r="180"/><path d="m218.378 335.936-21.213-21.213-21.213 21.213 21.213 21.213c5.858 5.858 15.355 5.858 21.213 0s5.858-15.355 0-21.213z" fill="#b0d0ff"/><path d="m197.165 335.936c5.858-5.858 5.858-15.355 0-21.213l-21.213-21.213c-5.858-5.858-15.355-5.858-21.213 0s-5.858 15.355 0 21.213l21.213 21.213c5.857 5.858 15.355 5.858 21.213 0z" fill="#c4e3fa"/><path d="m175.951 378.363-21.213-21.213-21.213 21.213 21.213 21.213c5.858 5.858 15.355 5.858 21.213 0s5.858-15.355 0-21.213z" fill="#b0d0ff"/><path d="m154.738 378.363c5.858-5.858 5.858-15.355 0-21.213l-21.213-21.213c-5.858-5.858-15.355-5.858-21.213 0s-5.858 15.355 0 21.213l21.213 21.213c5.858 5.857 15.355 5.857 21.213 0z" fill="#c4e3fa"/><path d="m430.51 81.378-212.132 212.132c58.579 58.579 153.554 58.579 212.132 0s58.578-153.554 0-212.132z" fill="#e3f5ff"/><path d="m409.296 272.297c58.579-58.579 68.076-144.056 21.213-190.919-58.579-58.579-153.553-58.579-212.132 0s-58.579 153.553 0 212.132c46.864 46.863 132.341 37.365 190.919-21.213z" fill="#fff"/><path d="m457.058 54.829c-73.106-73.106-192.059-73.106-265.165 0-61.42 61.42-71.229 155.195-29.446 226.961-4.75.619-9.339 2.743-12.98 6.385-6.914 6.914-8.374 17.242-4.391 25.604l-12.431 12.431c-8.362-3.983-18.691-2.522-25.604 4.391-6.685 6.685-8.27 16.562-4.767 24.767l-81.68 62.334c-1.924 1.485-3.638 2.985-5.24 4.587-20.47 20.47-20.469 53.777 0 74.246 20.47 20.469 53.776 20.47 74.246 0 1.606-1.606 3.154-3.38 4.601-5.273l-.048-.036c.782-.922 62.367-81.611 62.367-81.611 8.205 3.503 18.083 1.918 24.767-4.767 6.914-6.914 8.374-17.243 4.391-25.604l12.431-12.431c8.362 3.983 18.691 2.523 25.604-4.391 3.641-3.641 5.766-8.231 6.385-12.98 71.766 41.782 165.541 31.974 226.961-29.446 73.105-73.107 73.105-192.06-.001-265.167zm-374.775 427.323c-1.045 1.368-2.153 2.639-3.291 3.777-14.621 14.621-38.412 14.621-53.033 0s-14.621-38.412 0-53.033c1.144-1.144 2.385-2.229 3.766-3.293l81.954-62.543 33.149 33.149c-14.161 18.556-62.531 81.925-62.545 81.943zm88.397-87.911c-2.924 2.925-7.682 2.925-10.606 0l-42.427-42.427c-2.924-2.924-2.924-7.682 0-10.606s7.682-2.924 10.607 0l42.426 42.426c2.924 2.925 2.924 7.683 0 10.607zm5.303-26.517-31.82-31.82 10.607-10.607 31.82 31.82zm37.123-15.91c-2.925 2.925-7.682 2.925-10.607 0l-42.426-42.426c-2.925-2.924-2.925-7.682 0-10.607 2.924-2.924 7.682-2.924 10.606 0l42.427 42.427c2.924 2.924 2.924 7.682 0 10.606zm233.345-42.426c-67.258 67.258-176.694 67.258-243.952 0s-67.258-176.694 0-243.952c67.258-67.258 176.694-67.258 243.952 0s67.258 176.694 0 243.952z"/><path d="m435.845 76.043c-27.805-27.805-64.734-44.126-103.983-45.957-38.983-1.819-77.009 10.746-107.072 35.38-3.204 2.625-3.674 7.35-1.048 10.554 2.623 3.201 7.351 3.673 10.555 1.048 56.829-46.563 138.916-42.444 190.942 9.582 55.561 55.561 55.561 145.965 0 201.526s-145.964 55.561-201.526 0c-52.026-52.026-56.145-134.114-9.582-190.942 2.626-3.203 2.148-7.93-1.048-10.555-3.204-2.625-7.929-2.156-10.554 1.048-24.633 30.063-37.198 68.088-35.379 107.072 1.831 39.25 18.152 76.178 45.957 103.983 61.409 61.409 161.329 61.409 222.739 0s61.408-161.33-.001-222.739z"/></g></svg>